<?xml version="1.0" standalone="no"?>
<!DOCTYPE svg PUBLIC "-//W3C//DTD SVG 20010904//EN"
 "http://www.w3.org/TR/2001/REC-SVG-20010904/DTD/svg10.dtd">
<svg version="1.0" xmlns="http://www.w3.org/2000/svg"
 width="2167.000000pt" height="1099.000000pt" viewBox="0 0 2167.000000 1099.000000"
 preserveAspectRatio="xMidYMid meet">

<g transform="translate(0.000000,1099.000000) scale(0.100000,-0.100000)"
fill="#000000" stroke="none">
<path d="M17025 7450 c-323 -36 -609 -170 -806 -376 -123 -130 -201 -273 -234
-431 -22 -104 -22 -311 0 -418 56 -270 236 -488 511 -617 126 -59 264 -100
539 -163 411 -93 551 -131 653 -181 197 -95 292 -250 292 -474 0 -163 -49
-278 -164 -388 -119 -113 -276 -177 -491 -202 -431 -48 -920 102 -1287 396
-37 30 -74 54 -83 54 -14 0 -15 -33 -13 -297 l3 -297 105 -44 c149 -62 375
-136 510 -165 199 -44 287 -52 590 -52 372 0 497 22 717 125 387 181 613 503
630 900 19 449 -203 754 -662 908 -100 33 -265 75 -605 153 -274 62 -362 89
-463 141 -187 97 -281 253 -281 468 0 215 110 373 332 477 250 117 631 117
961 1 168 -59 395 -182 511 -277 14 -11 33 -21 43 -21 16 0 17 20 17 284 l0
283 -107 41 c-200 77 -404 129 -618 157 -143 19 -487 27 -600 15z"/>
<path d="M10150 5624 l0 -1776 693 5 c737 4 795 8 995 58 256 64 516 223 657
402 76 95 146 230 174 337 42 156 45 398 6 552 -23 88 -95 232 -152 303 -104
128 -283 244 -453 295 -39 11 -70 25 -70 30 0 5 19 19 43 31 339 172 519 485
479 837 -26 228 -116 384 -288 498 -136 91 -295 149 -474 174 -128 18 -552 30
-1092 30 l-518 0 0 -1776z m1305 1366 c346 -25 505 -131 546 -366 25 -141 -9
-330 -77 -431 -61 -89 -190 -170 -329 -207 -84 -23 -382 -37 -690 -34 l-260 3
-3 510 c-1 281 0 516 3 523 6 15 599 17 810 2z m17 -1430 c199 -12 289 -33
416 -96 214 -105 294 -250 296 -534 1 -139 -11 -203 -55 -295 -69 -147 -232
-271 -431 -329 -149 -43 -253 -51 -668 -51 l-385 0 -3 645 c-1 355 0 651 3
658 6 15 577 17 827 2z"/>
<path d="M13210 5625 l0 -1775 1180 0 1180 0 0 210 0 210 -930 0 -930 0 0 660
0 660 865 0 865 0 0 205 0 205 -865 0 -865 0 0 490 0 490 930 0 930 0 0 210 0
210 -1180 0 -1180 0 0 -1775z"/>
<path d="M18630 7190 l0 -210 635 0 635 0 0 -1565 0 -1565 250 0 250 0 0 1565
0 1565 635 0 635 0 0 210 0 210 -1520 0 -1520 0 0 -210z"/>
<path d="M6188 5591 c-158 -51 -280 -173 -328 -329 -24 -76 -27 -211 -6 -287
42 -157 167 -292 320 -345 380 -131 753 207 661 598 -39 167 -160 300 -323
358 -86 30 -237 33 -324 5z"/>
<path d="M4850 4089 c-217 -127 -402 -234 -410 -239 -12 -7 -4 -24 39 -97 360
-593 988 -1304 1663 -1881 997 -853 2111 -1462 3145 -1721 272 -68 563 -120
763 -136 41 -3 86 -8 100 -11 14 -3 -7 15 -50 42 -436 273 -949 815 -1297
1369 -287 458 -469 895 -564 1354 -66 318 -66 695 0 991 11 47 18 85 18 86 -1
0 -187 107 -413 237 l-411 237 -1094 -1 -1094 -1 -395 -229z"/>
<path d="M18140 3360 l0 -50 60 0 60 0 0 -375 0 -375 -60 0 -60 0 0 -50 0 -50
185 0 185 0 0 50 0 50 -65 0 -65 0 0 375 0 375 65 0 65 0 0 50 0 50 -185 0
-185 0 0 -50z"/>
<path d="M18630 3355 l0 -55 243 -2 243 -3 -253 -359 -253 -360 0 -58 0 -58
330 0 330 0 0 55 0 55 -261 0 c-143 0 -259 4 -257 8 2 5 117 168 256 364 l252
356 0 56 0 56 -315 0 -315 0 0 -55z"/>
<path d="M19410 2935 l0 -475 55 0 55 0 2 408 3 407 23 -50 c13 -27 69 -152
124 -277 l100 -228 37 0 38 0 118 268 c65 147 122 271 127 277 4 5 8 -174 8
-398 l0 -407 60 0 60 0 0 475 0 476 -87 -3 -87 -3 -111 -254 c-60 -139 -114
-253 -119 -253 -5 1 -37 65 -73 144 -35 79 -87 194 -115 256 l-50 112 -84 0
-84 0 0 -475z"/>
<path d="M20380 3360 l0 -50 60 0 60 0 0 -375 0 -375 -60 0 -60 0 0 -50 0 -50
185 0 185 0 0 50 0 50 -65 0 -65 0 0 375 0 375 65 0 65 0 0 50 0 50 -185 0
-185 0 0 -50z"/>
<path d="M20910 2936 l0 -476 60 0 60 0 0 190 0 190 74 0 75 0 150 -190 151
-190 82 0 c76 0 80 1 66 18 -79 93 -319 394 -317 396 2 1 28 17 57 36 91 57
132 134 132 250 0 105 -63 190 -170 230 -22 8 -107 14 -227 18 l-193 4 0 -476z
m390 339 c44 -26 70 -76 70 -137 0 -60 -14 -95 -53 -136 -40 -41 -80 -52 -194
-52 l-93 0 0 176 0 176 118 -3 c95 -3 124 -8 152 -24z"/>
</g>
</svg>
